<?xml version="1.0" encoding="UTF-8" standalone="no"?>
<svg
   xmlns:dc="http://purl.org/dc/elements/1.1/"
   xmlns:cc="http://creativecommons.org/ns#"
   xmlns:rdf="http://www.w3.org/1999/02/22-rdf-syntax-ns#"
   xmlns:svg="http://www.w3.org/2000/svg"
   xmlns="http://www.w3.org/2000/svg"
   xmlns:sodipodi="http://sodipodi.sourceforge.net/DTD/sodipodi-0.dtd"
   xmlns:inkscape="http://www.inkscape.org/namespaces/inkscape"
   version="1.1"
   id="Layer_1"
   x="0px"
   y="0px"
   viewBox="0 0 625.20691 600.0003"
   xml:space="preserve"
   sodipodi:docname="ic_fast_turnaround.svg"
   width="625.20691"
   height="600.00031"
   inkscape:version="1.0.1 (0767f8302a, 2020-10-17)"><metadata
   id="metadata37"><rdf:RDF><cc:Work
       rdf:about=""><dc:format>image/svg+xml</dc:format><dc:type
         rdf:resource="http://purl.org/dc/dcmitype/StillImage" /></cc:Work></rdf:RDF></metadata><defs
   id="defs35" /><sodipodi:namedview
   pagecolor="#ffffff"
   bordercolor="#666666"
   borderopacity="1"
   objecttolerance="10"
   gridtolerance="10"
   guidetolerance="10"
   inkscape:pageopacity="0"
   inkscape:pageshadow="2"
   inkscape:window-width="1366"
   inkscape:window-height="704"
   id="namedview33"
   showgrid="false"
   inkscape:zoom="0.5"
   inkscape:cx="199.32473"
   inkscape:cy="360.15241"
   inkscape:window-x="0"
   inkscape:window-y="27"
   inkscape:window-maximized="1"
   inkscape:current-layer="g30" />
<style
   type="text/css"
   id="style2">
	.st0{fill:#3F373F;}
	.st1{font-family:'MyriadPro-Regular';}
	.st2{font-size:91.5163px;}
</style>
<g
   id="g30"
   transform="translate(-111.92,-53.588316)">
	
	<g
   id="g28"
   transform="matrix(0.95871431,0,0,0.95871431,4.6206945,2.2124305)">
		<path
   class="st0"
   d="m 111.94,348.83 c 3.14,-7.12 8.63,-9.48 16.3,-9.44 42.87,0.22 85.73,0.02 128.6,0.22 4.79,0.02 6.85,-1.42 8.71,-5.9 5.28,-12.69 11.33,-25.06 17.09,-37.55 0.77,-1.67 1.62,-3.3 2.85,-5.8 -9.66,0 -18.47,0 -27.29,0 -14.64,0 -29.29,0.03 -43.93,-0.01 -9.68,-0.02 -15.69,-5.05 -15.53,-12.88 0.15,-7.55 6.13,-12.55 15.34,-12.56 28.01,-0.05 56.03,0.08 84.04,-0.17 2.68,-0.02 6.22,-1.51 7.89,-3.54 36.84,-44.62 82.95,-74.53 139.27,-88.36 3.58,-0.88 5.33,-2.26 5.14,-6.34 -0.35,-7.62 -0.27,-15.28 -0.02,-22.91 0.11,-3.35 -1.22,-4.73 -4.19,-5.92 -20.61,-8.25 -31.96,-27.65 -28.24,-47.9 3.95,-21.5 21.6,-36 44.38,-36.1 29.07,-0.13 58.15,-0.08 87.22,-0.02 23.64,0.05 41.25,13.99 45.26,35.68 4,21.63 -7.51,40.55 -29.89,49.17 -0.59,0.23 -1.16,0.49 -1.91,0.81 0,10.53 0,21.09 0,30.34 18.8,7.14 37.7,12.52 54.96,21.17 82.15,41.14 130.47,107.63 143.48,198.59 8.77,61.32 -5.07,118.36 -37.61,170.95 -3.33,5.39 -7.74,8.51 -14.2,7.39 -5.59,-0.97 -9.69,-4.65 -9.93,-10.11 -0.18,-4.07 1.44,-8.75 3.63,-12.32 15.15,-24.67 25.47,-51.16 30.95,-79.54 C 755.62,355.43 693.58,245 588.09,205.4 c -113.08,-42.44 -240.5,9.58 -291.45,118.99 -61.31,131.64 11.79,286.42 152.72,322.11 63.46,16.07 123.67,6.73 179.8,-27.37 1.27,-0.77 2.5,-1.61 3.8,-2.32 6.85,-3.71 14.09,-2.03 17.8,4.09 3.69,6.08 1.95,13.36 -4.65,17.65 -24.04,15.61 -50.01,26.9 -77.87,33.54 -125.62,29.94 -250.46,-33.85 -299.68,-153.11 -1.8,-4.37 -4.17,-5.43 -8.52,-5.4 -26.31,0.17 -52.63,0.1 -78.94,0.06 -2.75,0 -5.55,0.01 -8.24,-0.48 -5.87,-1.08 -9.99,-6.34 -9.96,-12.29 0.03,-5.69 3.89,-10.81 9.49,-12.03 2.66,-0.58 5.47,-0.62 8.22,-0.62 24.19,-0.05 48.39,-0.02 72.58,-0.04 1.24,0 2.47,-0.17 4.02,-0.29 -2.58,-16.08 -5.12,-31.85 -7.82,-48.65 -1.69,0 -3.92,0 -6.16,0 -15.92,0 -31.83,0.04 -47.75,-0.02 -9.08,-0.04 -14.93,-5.29 -14.74,-13.02 0.19,-7.49 5.87,-12.37 14.74,-12.41 17.8,-0.07 35.6,-0.02 53.5,-0.02 2.09,-16.27 4.13,-32.14 6.27,-48.82 -2.26,0 -4.74,0 -7.22,0 -39.26,0 -78.52,-0.13 -117.78,0.11 -7.79,0.05 -14.06,-1.77 -18.31,-8.6 0,-2.53 0,-5.08 0,-7.63 z M 506.19,114.75 c 14.41,0 28.82,0.05 43.23,-0.05 2.93,-0.02 5.99,-0.17 8.75,-1.05 7.99,-2.54 13.04,-10.85 11.87,-18.84 -1.4,-9.51 -8.62,-15.63 -19.31,-15.67 -29.24,-0.13 -58.49,-0.11 -87.73,-0.02 -12.18,0.04 -20.17,7.46 -20.03,18.18 0.14,10.51 7.9,17.36 19.98,17.42 14.42,0.09 28.83,0.03 43.24,0.03 z m -30.04,51.3 c 20.7,0 40.71,0 60.8,0 0,-8.42 0,-16.8 0,-25.45 -20.39,0 -40.41,0 -60.8,0 0,8.76 0,17.13 0,25.45 z"
   id="path10" />
		<path
   class="st0"
   d="m 111.94,496.55 c 0.89,-1.1 1.76,-2.21 2.66,-3.3 4.98,-6.03 13.58,-6.62 18.94,-1.31 5.3,5.23 5.04,13.62 -0.56,18.51 -5.64,4.93 -14.3,3.8 -18.79,-2.49 -0.85,-1.19 -1.51,-2.51 -2.27,-3.77 0.02,-2.54 0.02,-5.09 0.02,-7.64 z"
   id="path12" />
		<path
   class="st0"
   d="m 506.88,224.92 c 109.23,0.22 197.47,88.69 197.29,197.78 -0.18,108.94 -89.21,197.67 -197.95,197.28 -109,-0.4 -197.36,-89.34 -196.97,-198.26 0.39,-108.86 88.94,-197.03 197.63,-196.8 z m -0.05,25.48 c -94.92,-0.13 -172.02,76.86 -172.11,171.85 -0.09,94.81 77.11,172.18 171.88,172.26 94.76,0.08 172.09,-77.22 172.1,-172.03 0.02,-95.06 -76.78,-171.96 -171.87,-172.08 z"
   id="path14" />
		<path
   class="st0"
   d="m 667.03,595.09 c 0.07,-6.98 5.58,-12.41 12.59,-12.4 6.94,0.01 12.65,5.57 12.74,12.41 0.1,7.04 -5.92,12.91 -13.07,12.74 -6.96,-0.16 -12.33,-5.74 -12.26,-12.75 z"
   id="path16" />
		<path
   class="st0"
   d="m 467.01,420.64 c 0.53,-2.69 0.64,-6.69 2.14,-10.08 1.95,-4.43 1.1,-7.12 -2.37,-10.34 -7.78,-7.21 -15.15,-14.85 -22.57,-22.44 -6.21,-6.35 -6.54,-13.75 -1.11,-19.13 5.27,-5.22 12.98,-4.8 19.2,1.28 7.73,7.57 15.43,15.19 22.91,23 2.63,2.75 4.73,3.72 8.68,2.19 8.35,-3.24 17.16,-3.22 25.53,-0.05 3.87,1.47 5.99,0.73 8.72,-2.03 18.64,-18.87 37.45,-37.57 56.22,-56.32 1.5,-1.5 2.97,-3.07 4.7,-4.27 5.16,-3.59 12,-2.86 16.29,1.55 4.26,4.38 4.77,11.26 1.03,16.31 -1.38,1.86 -3.09,3.49 -4.74,5.14 -18.44,18.47 -36.83,36.99 -55.43,55.3 -2.99,2.94 -3.44,5.2 -2.13,9.27 5.17,16.07 1.46,30.41 -11.07,41.64 -12.52,11.22 -27.24,13.59 -42.6,6.55 -15.35,-7.01 -22.73,-19.68 -23.4,-37.57 z m 40,-12.19 c -7.92,-0.14 -14.25,5.96 -14.31,13.79 -0.06,7.75 6.34,14.25 14.03,14.24 7.43,-0.01 13.74,-6.16 13.99,-13.64 0.25,-7.84 -5.86,-14.25 -13.71,-14.39 z"
   id="path18" />
		<path
   class="st0"
   d="m 519.49,292.15 c 0,2.11 0.12,4.23 -0.02,6.33 -0.49,6.98 -5.5,11.94 -12.17,12.16 -6.6,0.21 -12.27,-4.47 -13,-11.31 -0.47,-4.38 -0.39,-8.87 -0.12,-13.28 0.46,-7.61 6.03,-12.68 13.22,-12.43 6.96,0.25 11.77,5.31 12.12,12.83 0.09,1.9 0.01,3.8 0.01,5.7 -0.02,0 -0.03,0 -0.04,0 z"
   id="path20" />
		<path
   class="st0"
   d="m 636.74,409.89 c 2.11,0 4.23,-0.1 6.33,0.02 6.95,0.39 12.1,5.33 12.5,11.89 0.41,6.67 -4.62,12.69 -11.71,13.34 -4.6,0.42 -9.31,0.43 -13.91,-0.02 -7.22,-0.71 -11.78,-6.39 -11.4,-13.46 0.37,-6.68 5.32,-11.37 12.48,-11.75 1.9,-0.11 3.81,-0.02 5.71,-0.02 z"
   id="path22" />
		<path
   class="st0"
   d="m 493.91,552.41 c 0.01,-1.9 -0.08,-3.8 0.02,-5.7 0.39,-7.27 5.54,-12.52 12.37,-12.68 6.8,-0.15 12.38,4.91 12.94,12.15 0.32,4.19 0.31,8.45 0.02,12.65 -0.5,7.24 -6.01,12.43 -12.74,12.4 -6.98,-0.03 -12.28,-5.54 -12.59,-13.13 -0.09,-1.89 -0.02,-3.79 -0.02,-5.69 z"
   id="path24" />
		<path
   class="st0"
   d="m 375.35,435.15 c -1.99,-0.19 -5,-0.17 -7.87,-0.82 -5.91,-1.34 -9.86,-6.7 -9.64,-12.56 0.23,-6.17 4.78,-11.35 11.09,-11.93 4.63,-0.43 9.34,-0.4 13.98,-0.12 6.96,0.42 11.6,5.14 11.96,11.66 0.38,6.91 -3.89,12.23 -10.93,13.32 -2.5,0.38 -5.08,0.28 -8.59,0.45 z"
   id="path26" />
	</g>
</g>
</svg>
