<?xml version="1.0" encoding="UTF-8" standalone="no"?>
<svg
   xmlns:dc="http://purl.org/dc/elements/1.1/"
   xmlns:cc="http://creativecommons.org/ns#"
   xmlns:rdf="http://www.w3.org/1999/02/22-rdf-syntax-ns#"
   xmlns:svg="http://www.w3.org/2000/svg"
   xmlns="http://www.w3.org/2000/svg"
   xmlns:sodipodi="http://sodipodi.sourceforge.net/DTD/sodipodi-0.dtd"
   xmlns:inkscape="http://www.inkscape.org/namespaces/inkscape"
   version="1.1"
   id="Layer_1"
   x="0px"
   y="0px"
   viewBox="0 0 436.13858 599.99988"
   xml:space="preserve"
   sodipodi:docname="ic_hidden_charges.svg"
   width="436.13858"
   height="599.99988"
   inkscape:version="1.0.1 (0767f8302a, 2020-10-17)"><metadata
   id="metadata25"><rdf:RDF><cc:Work
       rdf:about=""><dc:format>image/svg+xml</dc:format><dc:type
         rdf:resource="http://purl.org/dc/dcmitype/StillImage" /></cc:Work></rdf:RDF></metadata><defs
   id="defs23" /><sodipodi:namedview
   pagecolor="#ffffff"
   bordercolor="#666666"
   borderopacity="1"
   objecttolerance="10"
   gridtolerance="10"
   guidetolerance="10"
   inkscape:pageopacity="0"
   inkscape:pageshadow="2"
   inkscape:window-width="1366"
   inkscape:window-height="704"
   id="namedview21"
   showgrid="false"
   inkscape:zoom="0.25"
   inkscape:cx="281.40803"
   inkscape:cy="562.66116"
   inkscape:window-x="0"
   inkscape:window-y="27"
   inkscape:window-maximized="1"
   inkscape:current-layer="g18" />
<style
   type="text/css"
   id="style2">
	.st0{fill:#3F373F;}
	.st1{font-family:'MyriadPro-Regular';}
	.st2{font-size:91.5163px;}
</style>
<g
   id="g18"
   transform="translate(-281.00487,-121.87608)">
	
	<g
   id="g16"
   transform="matrix(1.0483755,0,0,1.0483755,-13.593736,-5.8958099)">
		<path
   class="st0"
   d="m 486.8,694.19 c -3.91,-2.69 -6.97,-5.92 -5.12,-11.1 1.83,-5.1 6.15,-5.72 10.95,-5.71 26.45,0.09 52.9,0.05 79.36,0.04 59.69,-0.01 102.88,-40.8 107.29,-100.26 4.27,-57.6 -6.97,-111.72 -36.4,-161.3 -14.21,-23.95 -31.44,-46.11 -47.47,-68.97 -10.69,-15.24 -21.72,-30.25 -32.46,-45.46 -1.98,-2.8 -3.95,-4.18 -7.65,-4.16 -44.15,0.16 -88.3,0.15 -132.45,0.01 -3.63,-0.01 -5.67,1.21 -7.71,4.06 -17.27,24.28 -34.68,48.45 -52.06,72.64 -1.08,1.51 -2.12,3.11 -3.48,4.34 -3.13,2.83 -6.76,3.15 -10.25,0.81 -3.79,-2.53 -4.51,-6.3 -2.81,-10.33 0.85,-2.02 2.37,-3.77 3.67,-5.58 15.83,-22.09 31.68,-44.16 47.72,-66.51 -0.98,-0.79 -1.74,-1.52 -2.62,-2.07 -6.13,-3.88 -9.42,-9.42 -9.6,-16.67 -0.15,-5.96 0.14,-11.93 -0.14,-17.88 -0.53,-11.22 3.32,-19.65 14.82,-23.79 -0.98,-2.09 -1.8,-3.93 -2.69,-5.74 -10.06,-20.55 -20.16,-41.08 -30.2,-61.63 -11.94,-24.45 2.28,-47.04 29.61,-47.04 61.85,-0.01 123.69,-0.03 185.54,0.01 17.56,0.01 30.4,10.85 32.02,27.77 0.47,4.96 -0.81,10.37 -2.47,15.17 -2.05,5.94 -5.22,11.5 -8.11,17.12 -2.6,5.04 -7.18,6.74 -11.55,4.6 -4.32,-2.12 -5.76,-6.82 -3.41,-11.96 2.32,-5.08 4.97,-10 7.28,-15.07 4.94,-10.8 -1.28,-20.83 -13.12,-20.85 -62.78,-0.07 -125.56,-0.07 -188.33,-0.01 -12.17,0.01 -18.5,10.14 -13.16,21.16 11.76,24.27 23.66,48.48 35.72,72.6 0.81,1.63 3.49,3.3 5.3,3.31 44.15,0.18 88.3,0.18 132.45,0 1.81,-0.01 4.38,-1.7 5.28,-3.33 3.68,-6.67 6.8,-13.65 10.23,-20.46 2.96,-5.9 7.42,-7.82 12.1,-5.4 4.7,2.43 5.71,6.93 2.82,12.99 -2.63,5.51 -5.33,10.99 -8.13,16.75 11.63,4.13 15.47,12.6 14.88,23.82 -0.21,3.9 -0.2,7.83 0,11.73 0.54,10.37 -1.65,19.34 -12.54,24.24 1.56,2.29 2.74,4.12 4,5.88 20.79,29.08 42.13,57.79 62.27,87.31 37.12,54.4 53.33,114.89 50.53,180.62 -1.18,27.76 -7.55,53.79 -24.86,76.21 -20.66,26.77 -47.67,42.69 -81.32,47.11 -1.06,0.14 -2.08,0.64 -3.12,0.97 -33.55,0.01 -67.08,0.01 -100.61,0.01 z m 1.62,-413.58 c 26.8,0 53.59,-0.15 80.38,0.12 5.58,0.06 7.22,-1.9 6.9,-7.11 -0.33,-5.19 -0.16,-10.42 -0.05,-15.63 0.08,-3.64 -1.12,-5.4 -5.14,-5.39 -54.33,0.09 -108.67,0.09 -163,0 -4.01,-0.01 -5.25,1.7 -5.15,5.36 0.12,4.83 0.02,9.68 0.02,14.51 0.01,8.12 0.02,8.13 7.89,8.13 26.05,0.01 52.1,0.01 78.15,0.01 z"
   id="path6" />
		<path
   class="st0"
   d="m 390.67,694.19 c -9.71,-2.36 -19.86,-3.63 -29.07,-7.25 -47.09,-18.53 -73.93,-53.3 -79.04,-103.62 -6.11,-60.16 5.86,-116.98 34.57,-170.23 2.12,-3.93 4.37,-7.79 6.7,-11.6 3.18,-5.2 7.81,-6.73 12.16,-4.19 4.26,2.5 5.33,7.48 2.24,12.63 -10.94,18.26 -20,37.39 -26.5,57.66 -13.41,41.77 -18.33,84.45 -10.38,127.79 8.53,46.43 51.23,81.34 98.52,81.97 15.83,0.21 31.66,0.13 47.49,0.02 4.78,-0.03 9.1,0.57 10.96,5.69 1.89,5.2 -1.23,8.38 -5.05,11.12 -20.87,0.01 -41.74,0.01 -62.6,0.01 z"
   id="path8" />
		<path
   class="st0"
   d="m 365.37,504.63 c 0.17,-68.22 55.74,-123.53 123.95,-123.38 67.93,0.15 123.08,55.58 123,123.64 -0.08,68.54 -55.6,123.59 -124.38,123.35 C 420.57,628 365.2,572.17 365.37,504.63 Z m 16.78,-0.59 c -0.73,57.61 46.91,106.71 104.24,107.43 60.2,0.75 108.48,-46 109.17,-105.71 0.67,-58.31 -46.47,-106.96 -104.38,-107.72 -59.89,-0.8 -108.28,46.25 -109.03,106 z"
   id="path10" />
		<path
   class="st0"
   d="m 495.84,592.72 c -53.38,0.14 -92.04,-36.15 -94.93,-82.81 -2.87,-46.25 31.44,-87.38 77.94,-92.62 25.67,-2.9 48.72,4.22 68.12,21.54 2.34,2.09 4.24,6.49 3.84,9.49 -0.89,6.61 -8.6,8.19 -14.39,3.23 -10.58,-9.05 -22.56,-14.83 -36.34,-17.17 -32.82,-5.57 -66.07,13.71 -77.99,45.4 -11.8,31.38 0.35,67.49 28.62,85.08 25.14,15.64 56.64,14.75 79.81,-2.27 24.43,-17.95 34.77,-47.28 27.23,-76.63 -0.74,-2.9 -1.23,-6.69 0.05,-9.03 1.23,-2.24 4.82,-4.11 7.55,-4.39 4.1,-0.41 6.6,2.57 7.8,6.6 6.06,20.41 5.46,40.64 -3.3,60 -15.62,34.52 -43.08,51.88 -74.01,53.58 z"
   id="path12" />
		<path
   class="st0"
   d="m 500.44,504.81 c 8.43,8.27 16.24,15.71 23.78,23.41 3.76,3.85 3.62,8.57 0.26,11.96 -3.24,3.26 -8.11,3.23 -12.03,-0.19 -1.54,-1.34 -2.93,-2.86 -4.38,-4.3 -5.93,-5.91 -11.86,-11.82 -17.81,-17.72 -0.25,-0.24 -0.63,-0.34 -1.68,-0.88 -6.2,6.24 -12.58,12.67 -18.97,19.09 -1.44,1.45 -2.81,3 -4.4,4.28 -3.73,3.02 -8.56,2.8 -11.62,-0.37 -3.23,-3.35 -3.43,-7.8 0.05,-11.52 5.21,-5.57 10.67,-10.9 16.14,-16.23 2.39,-2.33 5.05,-4.38 8.11,-7.01 -8.18,-8.12 -15.7,-15.26 -22.77,-22.81 -1.97,-2.1 -3.74,-5.51 -3.55,-8.17 0.16,-2.36 2.8,-5.87 4.99,-6.45 2.72,-0.72 6.91,0.11 9.03,1.93 6.61,5.69 12.58,12.13 18.7,18.38 1.42,1.45 2.43,3.3 4.17,5.71 7,-7.12 12.94,-13.18 18.9,-19.23 1.57,-1.59 3.11,-3.21 4.76,-4.71 4.16,-3.79 9,-3.95 12.4,-0.47 3.48,3.56 3.37,8.17 -0.69,12.38 -5.8,6.03 -11.79,11.89 -17.74,17.79 -1.58,1.58 -3.3,3.01 -5.65,5.13 z"
   id="path14" />
	</g>
</g>
</svg>
