<?xml version="1.0" encoding="UTF-8" standalone="no"?>
<svg
   xmlns:dc="http://purl.org/dc/elements/1.1/"
   xmlns:cc="http://creativecommons.org/ns#"
   xmlns:rdf="http://www.w3.org/1999/02/22-rdf-syntax-ns#"
   xmlns:svg="http://www.w3.org/2000/svg"
   xmlns="http://www.w3.org/2000/svg"
   xmlns:sodipodi="http://sodipodi.sourceforge.net/DTD/sodipodi-0.dtd"
   xmlns:inkscape="http://www.inkscape.org/namespaces/inkscape"
   version="1.1"
   id="Layer_1"
   x="0px"
   y="0px"
   viewBox="0 0 687.97949 600.00079"
   xml:space="preserve"
   sodipodi:docname="ic_starting_from.svg"
   width="687.97949"
   height="600.00079"
   inkscape:version="1.0.1 (0767f8302a, 2020-10-17)"><metadata
   id="metadata21"><rdf:RDF><cc:Work
       rdf:about=""><dc:format>image/svg+xml</dc:format><dc:type
         rdf:resource="http://purl.org/dc/dcmitype/StillImage" /></cc:Work></rdf:RDF></metadata><defs
   id="defs19" /><sodipodi:namedview
   pagecolor="#ffffff"
   bordercolor="#666666"
   borderopacity="1"
   objecttolerance="10"
   gridtolerance="10"
   guidetolerance="10"
   inkscape:pageopacity="0"
   inkscape:pageshadow="2"
   inkscape:window-width="1366"
   inkscape:window-height="704"
   id="namedview17"
   showgrid="false"
   inkscape:zoom="0.25"
   inkscape:cx="427.99466"
   inkscape:cy="587.33721"
   inkscape:window-x="0"
   inkscape:window-y="27"
   inkscape:window-maximized="1"
   inkscape:current-layer="g14" />
<style
   type="text/css"
   id="style2">
	.st0{fill:#3F373F;}
	.st1{font-family:'MyriadPro-Regular';}
	.st2{font-size:91.5163px;}
</style>
<g
   id="g14"
   transform="translate(-171.41,-66.998588)">
	
	<g
   id="g12"
   transform="matrix(1.0469018,0,0,1.0469018,-8.0394391,-3.1423551)">
		<path
   class="st0"
   d="m 171.43,322.87 c 2.74,-2.27 5.24,-4.97 8.27,-6.75 29.81,-17.56 59.71,-34.98 90.32,-52.86 -2.32,-1.51 -4.1,-2.78 -5.98,-3.89 -27.99,-16.47 -56,-32.9 -83.99,-49.36 -10.79,-6.35 -10.79,-12.91 0.01,-19.28 68.44,-40.4 136.93,-80.73 205.3,-121.26 5.73,-3.4 10.18,-3.24 15.86,0.16 31.19,18.62 62.63,36.8 93.87,55.33 3.63,2.15 6.19,2.11 9.78,-0.03 30.83,-18.39 61.86,-36.43 92.63,-54.9 6.31,-3.79 11.39,-3.6 17.65,0.09 68.27,40.28 136.66,80.34 205.02,120.46 0.55,0.32 1.11,0.64 1.65,0.98 9.01,5.57 9.04,11.93 -0.17,17.37 -28.32,16.74 -56.72,33.37 -85.08,50.05 -2.01,1.18 -3.97,2.44 -6.54,4.02 2.15,1.38 3.8,2.52 5.52,3.53 27.81,16.36 55.62,32.7 83.43,49.05 12.03,7.07 12.1,13.27 0.19,20.23 -31.54,18.44 -63.04,36.94 -94.69,55.2 -4.02,2.32 -5.56,4.8 -5.53,9.5 0.21,34.65 0,69.29 0.21,103.94 0.04,6.96 -2.22,11.35 -8.46,14.94 -68.14,39.22 -136.17,78.63 -204.08,118.24 -5.78,3.37 -10.06,3.28 -15.77,-0.04 -67.97,-39.52 -136.04,-78.86 -204.21,-118.02 -6.39,-3.67 -8.87,-8.1 -8.8,-15.42 0.3,-34.43 -0.03,-68.87 0.29,-103.3 0.06,-5.98 -1.99,-8.98 -7.02,-11.87 -30.37,-17.47 -60.56,-35.25 -90.7,-53.12 -3.37,-2 -6.01,-5.21 -9,-7.85 0.02,-1.72 0.02,-3.43 0.02,-5.14 z m 531.15,81.72 c -3.01,1.66 -5.03,2.71 -7,3.87 -26.89,15.77 -53.86,31.41 -80.59,47.44 -5.93,3.55 -10.61,3.42 -16.48,-0.11 -28,-16.83 -56.22,-33.29 -84.36,-49.87 -1.92,-1.13 -3.87,-2.2 -6.02,-3.42 0,72.06 0,143.27 0,215.27 18.77,-10.87 36.85,-21.33 54.91,-31.81 44.88,-26.03 89.78,-52.03 134.57,-78.21 2.16,-1.26 4.75,-4.19 4.77,-6.37 0.3,-31.85 0.2,-63.69 0.2,-96.79 z m -406.95,-1.02 c -0.36,1.56 -0.61,2.14 -0.61,2.73 -0.03,31.64 -0.13,63.28 0.16,94.91 0.02,2.2 2.51,5.2 4.66,6.45 61.43,35.82 122.96,71.46 184.49,107.12 1.56,0.91 3.24,1.62 5.08,2.52 0,-71.04 0,-141.41 0,-212.39 -2.45,1.36 -4.31,2.34 -6.11,3.39 -26.9,15.76 -53.91,31.34 -80.63,47.41 -6.68,4.01 -12.08,4.35 -18.8,0.14 -15.19,-9.53 -30.8,-18.4 -46.24,-27.52 -13.79,-8.14 -27.58,-16.26 -42,-24.76 z M 483.22,387.68 C 418.19,349.53 353.94,311.81 289.58,274.29 c -1.6,-0.94 -4.92,-0.34 -6.75,0.72 -27.14,15.76 -54.16,31.71 -81.2,47.65 -1.34,0.79 -2.52,1.87 -3.95,2.95 1.05,0.79 1.52,1.23 2.07,1.55 63.32,37.19 126.63,74.4 190.07,111.39 1.94,1.13 5.76,0.85 7.81,-0.33 27.17,-15.71 54.18,-31.69 81.21,-47.62 1.27,-0.73 2.45,-1.62 4.38,-2.92 z m 33.42,0.06 c 2.5,1.58 4.26,2.75 6.07,3.82 26.12,15.39 52.31,30.67 78.32,46.24 3.99,2.39 6.8,2.5 10.88,0.1 61.6,-36.35 123.31,-72.5 184.99,-108.71 1.76,-1.03 3.4,-2.25 5.57,-3.69 -1.34,-1.01 -2.1,-1.69 -2.96,-2.2 -27.6,-16.25 -55.16,-32.56 -82.91,-48.54 -1.93,-1.11 -5.74,-0.69 -7.83,0.5 -20.58,11.75 -40.98,23.82 -61.42,35.81 -43.28,25.37 -86.55,50.76 -130.71,76.67 z m 0.16,-250.27 c 1.41,1.02 2.05,1.57 2.76,1.99 63.17,37.09 126.36,74.14 189.47,111.33 3.36,1.98 5.7,1.39 8.73,-0.4 26.82,-15.9 53.73,-31.66 80.6,-47.48 1.35,-0.8 2.63,-1.72 4.52,-2.98 -10.38,-6.11 -20.1,-11.84 -29.84,-17.56 -53.79,-31.55 -107.56,-63.14 -161.45,-94.52 -2.29,-1.33 -6.42,-2.06 -8.45,-0.9 -28.69,16.49 -57.17,33.36 -86.34,50.52 z m -33.55,0.06 c -29.46,-17.32 -57.95,-34.17 -86.63,-50.68 -1.9,-1.1 -5.77,-0.47 -7.9,0.77 -62.34,36.37 -124.58,72.93 -186.83,109.47 -1.49,0.87 -2.85,1.97 -4.68,3.24 28.5,16.76 56.35,32.99 84,49.56 4.36,2.61 7.36,2.29 11.53,-0.17 61.26,-36.12 122.62,-72.06 183.94,-108.06 2.01,-1.17 3.94,-2.46 6.57,-4.13 z m 26.1,15.28 c -0.27,1.75 -0.45,2.38 -0.45,3 -0.02,46.4 -0.08,92.79 0.13,139.18 0.01,2.12 1.97,5.07 3.88,6.21 18.32,10.97 36.89,21.54 55.23,32.48 3.25,1.93 5.51,1.72 8.63,-0.12 38.43,-22.71 76.94,-45.28 115.43,-67.9 1.24,-0.73 2.41,-1.57 4.11,-2.69 C 633.96,226.23 572.02,189.74 509.35,152.81 Z m -18.28,-0.29 c -63.12,37.21 -125.07,73.72 -187.64,110.6 40.9,24.04 80.82,47.57 120.89,70.85 1.79,1.04 5.35,0.66 7.3,-0.45 18.39,-10.43 36.56,-21.24 54.93,-31.71 3.4,-1.94 4.65,-4.08 4.62,-8.02 -0.19,-24.16 -0.1,-48.31 -0.1,-72.47 0,-22.44 0,-44.88 0,-68.8 z m -46.43,193.57 c 18.4,10.76 35.61,20.92 53,30.78 1.48,0.84 4.49,0.18 6.21,-0.8 12.43,-7.03 24.72,-14.31 37.03,-21.53 4.48,-2.63 8.92,-5.34 14.25,-8.54 -18.45,-10.78 -35.87,-21 -53.38,-31.07 -0.99,-0.57 -2.94,-0.39 -4,0.21 -17.32,9.99 -34.57,20.11 -53.11,30.95 z"
   id="path10" />
	</g>
</g>
</svg>
