<?xml version="1.0" encoding="utf-8"?>
<!-- Generator: Adobe Illustrator 23.0.3, SVG Export Plug-In . SVG Version: 6.00 Build 0)  -->
<svg version="1.1" id="Layer_1" xmlns="http://www.w3.org/2000/svg" xmlns:xlink="http://www.w3.org/1999/xlink" x="0px" y="0px"
	 viewBox="0 0 1000 1000" style="enable-background:new 0 0 1000 1000;" xml:space="preserve">
<style type="text/css">
	.st0{fill:#3F373F;}
</style>
<g>
	<path class="st0" d="M658.61,743.22c0,11.86,0.16,23.35-0.04,34.85c-0.39,22.21,0.86,44.65-1.87,66.59
		c-5.77,46.48-48.27,81.72-95.47,81.42c-47.3-0.3-88.26-34.92-95.09-81.09c-1.64-11.06-1.37-22.43-1.66-33.67
		c-0.39-15.09-9.29-25.1-22.76-25.17c-13.49-0.07-22.71,9.75-22.85,24.91c-0.19,20.51,0.24,41.03-0.16,61.54
		c-0.43,22.62-14.38,40.1-34.99,44.87c-19.99,4.63-41.51-5.01-49.93-23.84c-3.29-7.35-4.7-16.13-4.73-24.26
		c-0.35-75.41-0.21-150.82-0.21-226.23c0-3.43,0-6.85,0-11.82c-11.15,0-21.69-0.04-32.22,0.01c-11.22,0.06-21.97-2.58-28.35-12.02
		c-4.44-6.57-7.87-15.07-8.24-22.88c-1.08-22.77-0.81-45.64-0.3-68.45c0.74-32.81-10.64-59.95-34.38-82.82
		c-34.92-33.63-51.38-75.37-50.26-123.79c1.85-80.43,66.5-149.62,146.73-157.43c83.68-8.14,160.59,46.79,177.25,127.54
		c12.09,58.6-2.71,110.18-45.24,152.48c-23.98,23.86-36.3,51.28-35.17,85.16c0.72,21.36,0.23,42.76,0.11,64.14
		c-0.14,24.31-13.91,37.89-38.38,38.04c-9.8,0.06-19.59,0.01-29.83,0.01c-0.35,2.4-0.87,4.31-0.87,6.22
		c-0.04,78.01-0.08,156.02,0.01,234.03c0.02,14.4,8.15,24.25,20.56,25.75c15.06,1.81,26.73-8.08,27.56-24.09
		c0.55-10.66,0.16-21.37,0.17-32.06c0.02-10.69-0.19-21.39,0.07-32.07c0.63-25.24,19.71-43.99,44.19-43.68
		c23.98,0.3,42.48,19.43,43.02,44.19c0.24,11.23-0.18,22.65,1.67,33.65c6.21,36.86,41,64.25,77.48,61.95
		c40.17-2.54,71.77-33.03,73.04-72.01c0.98-30.31,0.11-60.67,0.47-91c0.07-5.77-3.61-6.36-7.25-7.86
		c-52.63-21.74-88.94-59.33-107.33-113.19c-41.3-120.96,50.27-246.12,178.05-244.63c104.62,1.22,194.15,91.34,181.8,204.75
		c-11.99,110.08-109.85,181.51-219.49,162.84C662.32,743.88,660.92,743.63,658.61,743.22z M398.32,509.7
		c3.63-33.29,19.7-59.51,43.07-82.68c46.55-46.15,54.13-119.52,19.41-175.47c-34.76-56.01-103.52-81.11-166-60.6
		c-101.7,33.39-132.78,162.18-56.85,237.36c21.88,21.66,37.34,45.95,41.38,76.87c0.23,1.74,2.43,4.58,3.75,4.6
		c16.92,0.31,33.85,0.21,51.26,0.21c0-20.55-0.23-39.89,0.13-59.21c0.12-6.57-0.8-10.58-7.76-13.95
		c-14.22-6.89-21.06-23.81-17.58-38.9c3.79-16.4,17.19-27.71,33.81-28.52c15.9-0.77,30.37,8.7,35.88,23.49
		c5.64,15.14,1.51,33.75-12.63,41.28c-11.2,5.96-11.42,13.64-11.13,23.56c0.38,13.27,0.09,26.57,0.09,39.85c0,3.92,0,7.84,0,12.09
		C370.12,509.7,383.87,509.7,398.32,509.7z M860.07,562.23c-0.19-89.36-72-161.63-160.34-161.35
		c-90.25,0.28-161.88,71.71-162.05,161.61c-0.17,88.33,73.58,161.38,162.31,160.78C788.32,722.67,860.25,650.31,860.07,562.23z
		 M397.63,531.51c-39.5,0-78.06,0-116.62,0c0,3.92,0,7.24,0,11.42c5.39,0,10.25-0.05,15.1,0.01c6.38,0.08,10.71,2.95,11.05,9.62
		c0.36,7.13-4,10.55-10.67,10.99c-5.08,0.33-10.2,0.07-15.62,0.07c0,4.79,0,8.4,0,12.54c3.19,0.14,6.01,0.37,8.82,0.38
		c21.67,0.03,43.33-0.01,65,0.03c9.24,0.02,14.12,3.6,14.25,10.23c0.13,6.69-4.75,10.5-13.89,10.53
		c-19.93,0.07-39.87,0.02-59.8,0.02c-4.75,0-9.49,0-14.73,0c1.11,8.34,5.41,12.68,12.05,12.76c30.9,0.37,61.81,0.42,92.71,0.03
		c6.79-0.09,11.86-4.01,11.66-12.83c-4.62,0-8.9,0.07-13.18-0.02c-6.47-0.14-10.68-3.52-10.89-9.9
		c-0.23-6.89,4.12-10.49,10.92-10.78c4.5-0.2,9.02-0.04,13.62-0.04c0-4.83,0-8.42,0-12.87c-3.7,0-6.82,0-9.94,0
		c-20.8,0-41.6,0.08-62.4-0.05c-9.3-0.06-14-3.87-13.56-10.82c0.53-8.4,6.32-9.98,13.4-9.96c21.09,0.08,42.18,0.04,63.26,0
		c3.06-0.01,6.11-0.26,9.45-0.42C397.63,538.38,397.63,535.3,397.63,531.51z M344.93,421.09c8.47-0.15,15.36-7.07,15.38-15.44
		c0.02-8.7-7.42-15.75-16.25-15.39c-8.51,0.34-15.09,7.37-14.85,15.85C329.44,414.61,336.39,421.24,344.93,421.09z"/>
	<path class="st0" d="M467.6,191.32c-2.52-1.86-6.73-3.41-7.85-6.2c-1.26-3.15-1.2-8.78,0.83-10.97
		c12.34-13.28,25.27-26.02,38.3-38.64c4.03-3.91,9.9-4.12,12.99,0.37c2.27,3.29,3.7,10.64,1.76,12.79
		c-12.52,13.86-26.03,26.84-39.36,39.96C472.97,189.9,470.64,190.14,467.6,191.32z"/>
	<path class="st0" d="M221.17,181.37c-2.29,2.75-4.08,6.83-6.91,7.78c-3.25,1.08-8.73,0.78-11-1.34
		c-13.05-12.13-25.58-24.84-37.98-37.65c-4.17-4.31-3.87-9.67,0.32-13.95c4.2-4.29,9.57-4.71,13.91-0.53
		c12.83,12.37,25.38,25.05,37.84,37.8C219.01,175.17,219.56,177.94,221.17,181.37z"/>
	<path class="st0" d="M540.08,319.91c-7.5-0.01-15,0.11-22.5-0.05c-6.51-0.14-10.43-3.75-10.5-10.18
		c-0.07-6.48,4.01-10.29,10.35-10.41c15.57-0.28,31.16-0.25,46.73-0.02c6.38,0.09,10.57,3.94,10.54,10.28
		c-0.02,6.8-4.36,10.35-11.26,10.38C555.66,319.95,547.87,319.92,540.08,319.91z"/>
	<path class="st0" d="M355.14,107.66c0,7.5,0.09,15-0.02,22.5c-0.1,6.69-3.13,11.28-10.25,11.36c-7.06,0.08-10.43-4.24-10.47-11.05
		c-0.09-15-0.04-30-0.03-45.01c0-6.84,3.36-11.36,10.2-11.46c6.85-0.1,10.39,4.38,10.53,11.16
		C355.26,92.66,355.14,100.16,355.14,107.66z"/>
	<path class="st0" d="M136.69,319.91c-7.5,0-15.01,0.14-22.51-0.05c-6.41-0.16-10.41-3.47-10.54-10.1
		c-0.14-6.68,3.93-10.34,10.2-10.47c15.58-0.33,31.16-0.28,46.74-0.04c6.31,0.09,10.58,3.68,10.61,10.18
		c0.03,6.93-4.29,10.39-11.14,10.47C152.27,319.98,144.48,319.91,136.69,319.91z"/>
	<path class="st0" d="M672.04,574.2c20.29,9.36,40.09,18.73,60.19,27.43c2.32,1,6.78-1.03,9.37-2.88
		c14.69-10.5,30.32-12.7,46.55-4.86c15.91,7.68,24.32,21.01,24.72,38.72c0.56,24.55-19,44.35-43.42,44.49
		c-24.49,0.14-44.62-19.17-44.24-43.63c0.11-6.87-2.23-9.43-7.89-11.89c-17.45-7.59-34.71-15.64-51.93-23.76
		c-4.53-2.13-7.88-2.41-12.54,0.64c-19.11,12.54-43.63,8.58-57.74-8.65c-14.03-17.12-12.94-42.72,2.49-58.54
		c15.76-16.17,40.66-17.72,58.97-3.19c3.8,3.02,6.49,3.38,10.69,1.3c17.58-8.71,35.26-17.21,53.03-25.51
		c4.21-1.97,5.8-3.83,5.16-9.01c-2.49-20.14,10.14-39.27,29.42-45.84c19.34-6.6,40.72,1.04,51.33,18.35
		c10.85,17.68,8.36,39.93-6.06,54.17c-15,14.82-37.65,17.71-54.73,5.73c-5.99-4.2-10.16-4.06-16.1-1.06
		c-15.7,7.94-31.53,15.65-47.6,22.8c-6.55,2.92-10.51,6.11-9.09,13.95C673.19,566.26,672.31,569.82,672.04,574.2z M768.85,470.93
		c-10.65,0.12-19.75,9.45-19.57,20.07c0.18,10.64,9.66,19.67,20.27,19.32c10.41-0.35,19-9.18,19.05-19.6
		C788.65,480.01,779.47,470.81,768.85,470.93z M609.6,561.55c-0.18,10.74,8.05,19.58,18.62,20c10.96,0.43,20.04-8.2,20.24-19.27
		c0.2-11.07-8.57-20.11-19.49-20.05C618.37,542.28,609.77,550.86,609.6,561.55z M769.23,652.75c10.68-0.13,19.25-8.67,19.37-19.31
		c0.12-10.88-8.99-19.95-19.86-19.76c-10.93,0.19-19.84,9.48-19.43,20.26C749.71,644.48,758.6,652.87,769.23,652.75z"/>
</g>
</svg>
