<?xml version="1.0" encoding="utf-8"?>
<!-- Generator: Adobe Illustrator 23.0.3, SVG Export Plug-In . SVG Version: 6.00 Build 0)  -->
<svg version="1.1" id="Layer_1" xmlns="http://www.w3.org/2000/svg" xmlns:xlink="http://www.w3.org/1999/xlink" x="0px" y="0px"
	 viewBox="0 0 1000 1000" style="enable-background:new 0 0 1000 1000;" xml:space="preserve">
<style type="text/css">
	.st0{fill:#3F373F;}
</style>
<g>
	<path class="st0" d="M365.76,599.69c-2.31-3.15-4.45-5.74-6.25-8.55c-15.24-23.81-0.51-54.34,27.77-56.22
		c20.9-1.4,41.95-2.16,62.86-1.32c23.92,0.96,37.23-13.89,32.52-39.79c-0.26-1.43-0.58-2.89-1.12-4.23
		c-12.64-31.28-10.82-64.13-9.69-96.72c0.36-10.47,3.19-21.24,6.94-31.1c5.55-14.6,17.05-23.32,32.54-26.55
		c16.07-3.35,24.75,3.76,25.6,20.69c0.78,15.55,0.63,31.3,3.23,46.56c7.22,42.37,22.12,81.81,49.55,115.61
		c12.52,15.43,27.58,27.4,48.02,31.72c2.74-3.95,4.57-9.27,8.17-11.1c4.45-2.26,10.37-2.12,15.66-2.14
		c40.97-0.14,81.94-0.1,122.91-0.05c3.89,0,8.28-0.63,11.53,0.93c3.32,1.6,5.53,5.52,8.23,8.43c-3.02,2.62-5.67,6.21-9.18,7.59
		c-3.4,1.33-7.69,0.44-11.59,0.44c-36.09,0.01-72.19,0.01-108.28,0.01c-5.28,0-10.56,0-16.86,0c0,70.81,0,140.33,0,211.76
		c4.73,0.23,9.84,0.69,14.95,0.7c38.04,0.07,76.09,0.01,114.13,0.07c12.67,0.02,17.73,2.62,16.69,8.86
		c-1.68,10-10.05,7.49-16.4,7.52c-43.41,0.18-86.82,0.02-130.23,0.15c-8.91,0.03-17.36,0.05-17.39-13.08
		c-11.13,1.3-20.75,2.25-30.32,3.57c-72.35,9.98-145.11,4.74-217.69,5.88c-15.47,0.24-27.57-6.62-34.59-20.39
		c-7.04-13.8-5.68-27.3,4.55-39.5c0.84-1,0.97-2.61,1.94-5.41c-22.1,0-43.42-0.02-64.75,0c-59.48,0.07-118.96,0.2-178.43,0.21
		c-13.19,0-15.66-2.55-15.69-16.81c-0.11-44.83,0-89.66,0-134.49c0.01-126.33,0.01-252.65,0.01-378.98c0-2.44-0.01-4.88,0-7.32
		c0.1-18.73,0.49-19.22,18.56-19.22c244.36-0.02,488.72-0.01,733.09,0c3.41,0,6.83,0,10.24,0.16c5.78,0.28,8.93,3.47,9.39,9.15
		c0.28,3.4,0.21,6.82,0.21,10.24c0.01,91.7,0.01,183.39,0.01,275.09c0,4.78,0,9.55,0,15.21c-5.11,0.68-8.82,1.59-12.53,1.61
		c-32.68,0.11-65.36,0.12-98.04,0.03c-6.66-0.02-14.58,1.37-16.23-8.12c-1.07-6.18,4.44-9.28,16.7-9.35
		c24.87-0.16,49.75,0,74.63-0.09c5.23-0.02,10.45-0.55,16.8-0.9c0-57.41,0-113.63,0-170.85c-245.43,0-489.98,0-735.66,0
		c0,138.44,0,276.27,0,414.01c10.46,3.53,201.09,4.88,231.01,1.64c0.44-6.49-0.16-13.42,1.62-19.69c1.8-6.36,5.94-12.06,9.69-19.26
		C349.64,638.29,348.85,618.82,365.76,599.69z M517.45,352.71c-15.42,2.13-23.76,8.98-26.48,25.26
		c-5.25,31.46-5.71,62.99,3.16,94.15c2.65,9.33,5.16,18.83,6.33,28.42c2.5,20.37-8.94,39.89-27.6,46.83
		c-6.66,2.48-14.24,3.22-21.43,3.4c-20.47,0.52-40.98-0.07-61.44,0.6c-11.1,0.36-18.8,8.33-19.6,18.15
		c-0.74,9.02,5.42,17.5,15.25,20.72c2.29,0.75,5.37,0.16,7.04,1.5c2.74,2.18,6.45,5.49,6.37,8.22c-0.08,2.73-4.02,5.75-6.86,7.83
		c-1.78,1.31-4.72,0.93-7.04,1.63c-8.87,2.68-14.31,9.34-14.77,17.84c-0.49,9.04,4.72,16.29,14.26,19.65
		c2.29,0.81,5.1,0.72,6.96,2.05c2.53,1.8,5.98,4.5,6.08,6.93c0.1,2.55-2.92,5.67-5.3,7.71c-1.68,1.44-4.63,1.27-6.88,2.17
		c-10.3,4.1-15.81,11.9-14.99,20.96c0.83,9.11,7.12,15.89,17.93,18.15c5.12,1.07,10.28,2.13,10.49,8.04
		c0.23,6.47-4.98,8.89-10.6,10.08c-1.43,0.3-2.93,0.4-4.3,0.88c-8.59,3.05-13.78,10.21-13.68,18.71c0.1,8.46,5.21,15.65,14.25,18.17
		c5.54,1.54,11.51,2.05,17.29,2.08c36.58,0.18,73.18,0.81,109.73-0.12c30.18-0.77,60.34-3.19,90.46-5.5
		c12.51-0.96,24.89-3.55,37.61-5.44c0-61.86,0-122.51,0-183.78c-35.01-6.58-57.63-28.68-75.64-56.47
		c-20.14-31.06-32.97-65.22-39.63-101.49C521.02,391.47,519.79,372.5,517.45,352.71z M858,174.6c-245.96,0-490.41,0-735.42,0
		c0,28.81,0,56.75,0,85.18c245.48,0,489.89,0,735.42,0C858,231.15,858,203.61,858,174.6z"/>
	<path class="st0" d="M770.31,599.79c17.05,0,34.09-0.04,51.14,0.03c3.39,0.01,7.23-0.47,10.04,0.93c2.6,1.29,5.62,4.76,5.67,7.33
		c0.05,2.54-2.87,6.24-5.42,7.45c-3.32,1.57-7.56,1.57-11.4,1.58c-34.09,0.12-68.18,0.19-102.28,0.02c-7-0.04-15.67,1.51-17.37-8.71
		c-0.99-5.94,4.52-8.57,17.03-8.61C735.24,599.74,752.77,599.79,770.31,599.79z"/>
	<path class="st0" d="M810.56,866.63c-15.6,0-31.2,0.1-46.79-0.07c-3.83-0.04-7.94-0.29-11.38-1.73c-2.22-0.93-4.95-4.32-4.78-6.39
		c0.24-2.84,2.41-6.63,4.85-7.88c3.23-1.65,7.51-1.64,11.34-1.65c31.2-0.11,62.39-0.06,93.59-0.05c1.46,0,2.93-0.03,4.39,0.06
		c6.27,0.35,12.35,1.71,11.85,9.59c-0.44,6.88-6.25,8.01-11.88,8.05c-17.06,0.11-34.12,0.04-51.18,0.04
		C810.56,866.6,810.56,866.62,810.56,866.63z"/>
	<path class="st0" d="M153.15,358.09c0,15.04,0.04,30.09-0.03,45.13c-0.02,3.38,0.51,7.28-0.96,9.98c-1.6,2.92-5.29,6.54-7.99,6.48
		c-2.75-0.07-6.08-3.83-7.88-6.76c-1.35-2.2-0.89-5.65-0.89-8.54c-0.05-31.54-0.03-63.09-0.03-94.63c0-1.46,0.01-2.91,0.08-4.37
		c0.26-5.72,1.78-11.47,8.28-11.8c7.64-0.38,9.27,5.86,9.31,12.09c0.13,17.47,0.05,34.94,0.05,52.41
		C153.1,358.09,153.12,358.09,153.15,358.09z"/>
	<path class="st0" d="M829.39,711.97c-13.1,0.01-26.2,0.03-39.3-0.01c-2.91-0.01-6.45,0.76-8.56-0.6c-3.23-2.08-6.72-5.38-7.6-8.81
		c-0.45-1.74,4.15-5.86,7.2-7.13c3.39-1.41,7.62-1.02,11.48-1.03c24.66-0.06,49.32-0.05,73.98,0.04c3.86,0.01,8.12-0.35,11.47,1.11
		c3,1.31,7.38,5.52,6.91,7.38c-0.84,3.34-4.38,6.93-7.7,8.44c-3.25,1.48-7.62,0.58-11.5,0.59
		C853.64,711.99,841.52,711.96,829.39,711.97z"/>
	<path class="st0" d="M194.39,334.09c0,9.25,0.01,18.5,0,27.74c-0.01,5.81-1.55,11.37-8.08,11.94c-6.89,0.6-9.14-5.05-9.22-10.72
		c-0.27-19.46-0.27-38.94-0.02-58.4c0.07-5.63,2.11-11.33,8.89-11.23c6.78,0.11,8.36,5.68,8.41,11.46
		C194.46,314.62,194.39,324.35,194.39,334.09z"/>
	<path class="st0" d="M834.54,807.77c9.69,0,19.39-0.12,29.07,0.05c5.31,0.09,9.79,2.11,10.09,8.16c0.31,6.21-4.3,8.74-9.43,8.82
		c-20.34,0.31-40.69,0.33-61.04,0.02c-5.12-0.08-9.74-2.7-9.38-8.89c0.35-6.01,4.85-8.03,10.15-8.12
		C814.18,807.65,824.36,807.77,834.54,807.77z"/>
	<path class="st0" d="M836.28,493.69c9.26,0,18.52-0.03,27.78,0.01c5.63,0.03,11.54,0.7,11.86,7.78c0.32,7.04-5.19,8.59-11.03,8.6
		c-19.49,0.04-38.99,0.01-58.48-0.04c-5.38-0.01-10.16-1.75-10.39-7.82c-0.27-7.22,5.18-8.49,11.03-8.51
		c9.75-0.03,19.49-0.01,29.24-0.01C836.28,493.71,836.28,493.7,836.28,493.69z"/>
	<path class="st0" d="M849.23,553.43c-5.35,0-10.94,0.92-15.97-0.35c-2.88-0.73-6.71-5-6.73-7.69c-0.01-2.67,4.06-7.48,6.62-7.69
		c11.11-0.87,22.36-0.89,33.47-0.06c2.56,0.19,7.17,5.71,6.62,7.47c-1.03,3.34-4.7,7.26-8.03,8.17c-4.98,1.37-10.62,0.36-15.98,0.36
		C849.23,553.58,849.23,553.51,849.23,553.43z"/>
	<path class="st0" d="M235.4,317.34c0,5.32,1.02,10.94-0.36,15.87c-0.93,3.31-4.88,6.82-8.25,7.94c-1.55,0.52-6.94-4.3-7.14-6.96
		c-0.85-11.03-0.87-22.2-0.06-33.24c0.2-2.73,5.39-7.65,7.02-7.18c3.37,0.97,7.47,4.44,8.4,7.7c1.41,4.92,0.37,10.54,0.37,15.86
		C235.38,317.34,235.39,317.34,235.4,317.34z"/>
	<path class="st0" d="M848.9,782.7c-4.84,0-10.01,1.04-14.41-0.34c-3.32-1.05-6.8-4.81-7.94-8.14c-0.51-1.5,4.37-6.88,7.06-7.07
		c11.06-0.8,22.26-0.76,33.31,0.12c2.47,0.2,6.36,5.13,6.3,7.81c-0.06,2.56-4.1,6.59-6.96,7.18c-5.57,1.15-11.54,0.34-17.35,0.34
		C848.9,782.62,848.9,782.66,848.9,782.7z"/>
	<path class="st0" d="M584.94,226.16c-81.38,0-162.76,0-244.14-0.02c-4.38,0-9.1,0.71-13.02-0.71c-3-1.08-6.87-5-6.87-7.65
		c0.01-2.6,3.99-6.09,7.02-7.53c2.82-1.34,6.68-0.61,10.09-0.61c164.22-0.02,328.44-0.03,492.66-0.01c3.41,0,7.29-0.77,10.09,0.59
		c2.96,1.44,6.83,5.06,6.75,7.62c-0.09,2.72-3.89,6.58-6.88,7.65c-3.92,1.4-8.65,0.66-13.03,0.66
		C746.73,226.17,665.83,226.16,584.94,226.16z"/>
	<path class="st0" d="M248.59,226.1c-6.26,0.12-12.12-1.13-12.04-8.79c0.07-6.96,5.94-7.88,11.4-8.1c7.45-0.3,13.01,3.66,12.25,8.9
		C259.27,224.6,254.46,226.32,248.59,226.1z"/>
	<path class="st0" d="M146.91,226.14c-4.79,0.22-9.67-1.4-10.71-7.87c-0.81-5.08,4.92-9.2,12.25-9.04c5.5,0.12,11.24,0.97,11.43,8
		C160.1,225.12,154.13,226.06,146.91,226.14z"/>
	<path class="st0" d="M197.72,226.1c-5.55,0.29-10.44-1.42-11.36-8.05c-0.74-5.32,4.61-8.59,12.7-8.49
		c5.95,0.07,10.89,1.44,10.91,8.62C209.98,223.23,205.41,226.09,197.72,226.1z"/>
</g>
</svg>
