<?xml version="1.0" encoding="utf-8"?>
<!-- Generator: Adobe Illustrator 23.0.3, SVG Export Plug-In . SVG Version: 6.00 Build 0)  -->
<svg version="1.1" id="Layer_1" xmlns="http://www.w3.org/2000/svg" xmlns:xlink="http://www.w3.org/1999/xlink" x="0px" y="0px"
	 viewBox="0 0 1000 1000" style="enable-background:new 0 0 1000 1000;" xml:space="preserve">
<style type="text/css">
	.st0{fill:#3F373F;}
</style>
<g>
	<path class="st0" d="M561.87,286.27c-16.32-62.97-1.16-115.11,50.93-155.19c49.19-32.01,99.5-34.01,150.17-4.26
		c27.25,16,45.81,39.95,56.43,69.74c10.56,29.62,10.42,59.49,0.66,89.7c2.2,0,4.02,0,5.84,0c30.87,0,61.74,0.01,92.6,0.01
		c7.43,0,10.48,3.06,10.48,10.57c0,137.04,0.01,274.09,0.01,411.13c0,36.56,0,73.12,0,109.68c0,7.64-3.07,10.71-10.75,10.68
		c-16.19-0.07-32.38-0.24-48.57-0.23c-61.4,0.05-122.8,0.17-184.21,0.22c-12.58,0.01-25.15-0.27-37.73-0.26
		c-52.86,0.06-105.72,0.22-158.58,0.26c-65.55,0.05-131.1,0.03-196.65,0c-12.58-0.01-25.15-0.28-37.73-0.27
		c-52.64,0.06-105.29,0.18-157.93,0.28c-5.79,0.01-11.58,0-17.37-0.03c-4.24-0.02-8.03-3.47-8.43-7.7
		c-0.09-0.98-0.03-1.97-0.03-2.95c0-49.26,0-98.51,0-147.77c0-70.91,0-141.82,0-212.72c0-53.41,0-106.82,0-160.22
		c0-7.65,3.02-10.65,10.73-10.66c47.83,0,95.66,0,143.49,0c100.35,0,200.71,0,301.06,0C538.22,286.27,550.14,286.27,561.87,286.27z
		 M808.37,312.3c-6.01,10.05-14.11,18.24-21.86,26.68c-29.11,31.65-58.32,63.22-87.48,94.82c-5.27,5.71-10.25,5.66-15.54-0.08
		c-26.87-29.11-53.83-58.13-80.61-87.31c-11.81-12.87-24.37-25.2-32.2-41.23c-0.4-0.82-2.04-1.47-3.11-1.47
		c-51.78-0.07-103.55-0.06-155.33-0.07c-65.13-0.01-130.26-0.01-195.4-0.02c-5.43,0-10.86,0-16.3,0c0,169.34,0,338.19,0,507.24
		c202.69,0,405.14,0,607.83,0C808.37,644.49,808.37,478.39,808.37,312.3z M911.62,810.85c0-169.37,0-338.19,0-506.97
		c-28.75,0-57.24,0-85.67,0c0,169.13,0,337.95,0,506.97C854.64,810.85,883.03,810.85,911.62,810.85z M88.32,303.77
		c0,169.12,0,337.96,0,507.04c31.59,0,62.92,0,94.45,0c0-169.18,0-338.02,0-507.04C151.26,303.77,119.98,303.77,88.32,303.77z
		 M691.52,416.82c0.49-0.69,0.76-1.18,1.13-1.58c23.22-25.16,46.5-50.27,69.66-75.49c8.66-9.42,17.91-18.46,25.41-28.75
		c19.02-26.14,25.85-55.74,20.7-87.61c-5.43-33.61-22.24-60.78-50.8-79.37c-41.04-26.72-84.02-28.31-126.42-3.87
		c-44.62,25.72-65.78,74.43-56.23,125.21c3.57,18.99,11.12,36.45,24.17,50.91c24.18,26.81,48.73,53.27,73.15,79.86
		C678.57,402.97,684.92,409.73,691.52,416.82z"/>
	<path class="st0" d="M467.86,709.38c11.04-2.66,21.81-5.32,32.61-7.83c4.77-1.11,9.04,1.64,10.27,6.33c1.16,4.41-1.18,9-5.87,10.24
		c-9.17,2.42-18.48,4.31-27.66,6.67c-4.55,1.17-8.18,0.26-11.01-3.29c-30.45,17.57-60.82,35.09-91.19,52.62
		c-9.94,5.74-19.91,11.43-29.79,17.26c-3.67,2.16-7.12,2.23-10.8,0.11c-39.37-22.76-78.75-45.49-118.13-68.23
		c-3.09-1.79-4.7-4.45-4.7-8.07c0.01-36.33,0.03-72.67-0.02-109c-0.01-4.33,1.94-7.1,5.6-9.21c35.53-20.44,71.02-40.95,106.52-61.44
		c3.5-2.02,7.07-3.94,10.49-6.08c3.74-2.34,7.23-2.26,11.06-0.03c26.38,15.31,52.81,30.51,79.23,45.75
		c12.31,7.1,24.54,14.35,36.95,21.26c4.67,2.6,6.55,5.99,6.52,11.36c-0.17,32.69-0.08,65.39-0.08,98.08
		C467.86,707.04,467.86,708.2,467.86,709.38z M348.33,769.48c33.26-19.17,65.91-38,98.57-56.82c0.66-0.38,1.53-0.64,1.91-1.22
		c0.75-1.14,1.75-2.45,1.75-3.7c0.16-23.96,0.18-47.92,0.23-71.87c0.01-4.99,0-9.99,0-15.56c-1.49,0.79-2.44,1.25-3.35,1.78
		c-12.21,7.04-24.39,14.15-36.67,21.08c-2.12,1.2-2.75,2.52-2.74,4.88c0.09,22.1,0.07,44.2,0,66.3c-0.01,1.79-0.33,3.75-1.11,5.34
		c-1.69,3.42-5.86,5.08-9.48,4.19c-3.94-0.97-6.55-4.29-6.55-8.71c-0.04-19.04-0.01-38.08-0.02-57.11c0-0.92-0.08-1.85-0.14-3.11
		c-0.82,0.42-1.29,0.63-1.74,0.88c-12.68,7.32-25.33,14.7-38.08,21.92c-2.01,1.14-2.64,2.4-2.63,4.62
		c0.07,25.6,0.05,51.2,0.05,76.81C348.33,762.41,348.33,765.66,348.33,769.48z M285.43,652.95c0,2.41,0,4.23,0,6.05
		c0,17.84,0.1,35.68-0.1,53.51c-0.03,2.41-1.05,5.16-2.48,7.12c-2,2.74-6.28,3.33-9.29,1.98c-3.66-1.65-5.43-4.54-5.42-8.57
		c0.01-22.65,0.03-45.29-0.05-67.94c0-1.07-0.58-2.66-1.4-3.14c-11.98-7-24.04-13.86-36.1-20.73c-0.44-0.25-0.95-0.36-1.75-0.66
		c0,1.38,0,2.45,0,3.51c0,27.47,0.06,54.93-0.08,82.4c-0.02,3.06,1,4.59,3.57,6.06c29.86,17.12,59.65,34.37,89.46,51.58
		c2.98,1.72,5.99,3.39,9.22,5.22c0.06-0.89,0.11-1.32,0.11-1.74c0.02-28.67,0.06-57.34-0.04-86.01c0-1.17-1.07-2.81-2.12-3.44
		c-8.05-4.85-16.22-9.51-24.36-14.21C298.38,660.36,292.15,656.81,285.43,652.95z M441.6,605.43c-0.52-0.49-0.72-0.76-0.99-0.91
		c-14.95-8.63-29.88-17.29-44.9-25.8c-0.92-0.52-2.76-0.28-3.76,0.31c-9.32,5.5-18.55,11.14-27.8,16.75
		c-3.49,2.12-6.97,4.26-10.81,6.6c15.17,9.14,29.93,18.04,44.74,26.86c0.62,0.37,1.91,0.13,2.63-0.28
		C414.28,621.21,427.8,613.39,441.6,605.43z M381.92,639.82c-14.93-8.98-29.32-17.69-43.81-26.25c-0.89-0.53-2.72-0.3-3.69,0.28
		c-12.87,7.65-25.66,15.43-38.47,23.18c-0.41,0.25-0.75,0.63-1.33,1.13c14.84,8.59,29.37,17.03,43.97,25.36
		c0.68,0.39,2.07,0.09,2.88-0.36c5.73-3.17,11.42-6.43,17.09-9.72C366.2,649.03,373.81,644.56,381.92,639.82z M237.73,605.18
		c1.07,0.7,1.75,1.2,2.47,1.61c11.17,6.45,22.46,12.7,33.44,19.45c3.2,1.96,5.22,1.08,7.79-0.5c7.79-4.79,15.65-9.46,23.46-14.23
		c4.86-2.97,9.68-6.03,14.73-9.18c-12.14-7.33-23.85-14.36-35.5-21.48c-1.63-1-2.87-0.9-4.46,0.03
		c-9.71,5.7-19.47,11.32-29.21,16.95C246.32,600.23,242.18,602.62,237.73,605.18z M376.61,567.96c-0.36-0.4-0.53-0.7-0.78-0.85
		c-11.44-6.61-22.87-13.26-34.38-19.74c-0.95-0.53-2.76-0.39-3.77,0.17c-9.25,5.17-18.41,10.5-27.58,15.8
		c-3.54,2.04-7.05,4.14-10.89,6.4c12.22,7.37,23.96,14.51,35.81,21.49c0.88,0.52,2.71,0.18,3.73-0.41
		c5.13-2.91,10.13-6.04,15.17-9.1C361.45,577.17,368.98,572.59,376.61,567.96z"/>
	<path class="st0" d="M560.49,532.93c-1.34,2.12-2.26,4.74-4.09,6.28c-6.35,5.36-11.29,11.39-13.11,19.78
		c-0.98,4.49-5.91,7.03-10.26,5.95c-4.52-1.12-7.31-5.66-6.39-10.31c2.46-12.47,9.71-21.75,19.58-29.24
		c2.77-2.1,5.88-2.29,8.94-0.61C558.17,526.41,559.86,528.94,560.49,532.93z"/>
	<path class="st0" d="M567.8,608.35c-0.75,4.08-2.73,7.05-6,8.34c-3.5,1.38-7.23,0.82-9.54-2.15c-6.29-8.1-12.53-16.25-18.39-24.66
		c-3.21-4.6-1.72-9.86,2.73-12.45c4.33-2.52,8.95-0.95,12.09,3.52c4.89,6.96,10.15,13.67,15.13,20.57
		C565.35,603.64,566.48,606.06,567.8,608.35z"/>
	<path class="st0" d="M577.54,527.1c-4.69-0.05-7.94-2.8-8.81-7.02c-0.84-4.05,1.03-8.04,5.12-9.5c7.29-2.61,14.7-4.86,22.08-7.21
		c2.29-0.73,4.6-1.41,6.93-1.94c5.47-1.25,9.67,1.27,11.03,6.51c1.13,4.38-1.57,8.71-6.47,10.23c-9.17,2.85-18.34,5.67-27.52,8.47
		C578.98,526.93,577.99,527.01,577.54,527.1z"/>
	<path class="st0" d="M521.64,699.57c0.1-2.91,1.64-5.55,4.96-7.44c7.95-4.53,15.83-9.19,23.59-14.03
		c4.39-2.74,9.28-2.33,12.28,1.55c2.94,3.81,2.45,8.67-1.47,11.97c-8.25,6.96-17.62,12.16-27.48,16.39
		C527.81,710.45,521.7,706.26,521.64,699.57z"/>
	<path class="st0" d="M586.05,647.12c0.16,6.23-1.36,12.12-3.84,17.77c-2.27,5.19-7.02,7.19-11.75,5.1
		c-4.55-2.01-6.31-6.78-4.15-11.86c3-7.08,3.23-14.11,0.49-21.33c-1.91-5.02,0.3-9.88,4.92-11.57c4.66-1.71,9.56,0.47,11.2,5.63
		c1.67,5.24,2.65,10.71,3.93,16.08C586.58,646.99,586.32,647.06,586.05,647.12z"/>
	<path class="st0" d="M634.27,510.01c-4.49,0.04-8.05-2.74-8.83-6.68c-0.84-4.26,1.22-8.18,5.17-9.89
		c8.89-3.86,17.78-7.72,26.66-11.6c4.24-1.85,8.94-0.46,11.16,3.34c2.26,3.88,1.48,9.03-2.3,11.4c-9.48,5.95-19.81,10.06-30.5,13.3
		C635.12,510.03,634.55,509.98,634.27,510.01z"/>
	<path class="st0" d="M683.88,479.74c-3.71-0.55-6.22-2.01-7.93-4.89c-1.79-3.03-1.65-6.07,0.18-8.98
		c2.62-4.16,5.34-8.25,8.02-12.37c2.47-3.79,7.07-5.18,10.87-3.31c4.14,2.04,6.35,6.9,4.18,11.07c-2.77,5.3-6.09,10.35-9.63,15.18
		C688.39,478.06,685.82,478.67,683.88,479.74z"/>
	<path class="st0" d="M175.54,555.39c0,15.87,0.02,31.74-0.01,47.61c-0.02,14.29-9.72,25.07-24.07,26.84
		c-12.64,1.56-25.32-7.31-28.03-20.49c-1.22-5.9-0.85-12.17-0.87-18.27c-0.09-27.36-0.07-54.72-0.06-82.08
		c0-10.68,4.23-19.21,13.63-24.5c9.02-5.07,18.32-4.78,27.09,0.74c7.94,5,12.2,12.46,12.28,21.91
		C175.64,523.21,175.54,539.3,175.54,555.39z M139.99,555.21c0,15.76-0.02,31.52,0.01,47.28c0.01,6.06,3.48,9.91,8.88,9.97
		c5.57,0.07,9.41-3.83,9.41-9.89c0.04-31.41,0.06-62.82-0.07-94.24c-0.01-2.15-0.88-4.55-2.06-6.37c-2.04-3.14-6.44-4.25-9.96-3.13
		c-3.76,1.2-6.2,4.66-6.21,9.09C139.96,523.69,139.98,539.45,139.99,555.21z"/>
	<path class="st0" d="M787.76,238.37c0.08,53.24-43.09,96.65-96.13,96.67c-53.43,0.02-96.88-43.2-96.91-96.36
		c-0.02-53.34,42.99-96.62,96.1-96.69C744.69,141.93,787.68,184.67,787.76,238.37z M691.07,317.57
		c42.21,0.49,78.65-33.54,79.43-77.67c0.79-44.34-34.49-80.23-78.15-80.63c-44.7-0.41-80.11,34.84-80.16,79.21
		C612.12,282.18,647.35,317.5,691.07,317.57z"/>
</g>
</svg>
