<?xml version="1.0" encoding="UTF-8" standalone="no"?>
<svg
   xmlns:dc="http://purl.org/dc/elements/1.1/"
   xmlns:cc="http://creativecommons.org/ns#"
   xmlns:rdf="http://www.w3.org/1999/02/22-rdf-syntax-ns#"
   xmlns:svg="http://www.w3.org/2000/svg"
   xmlns="http://www.w3.org/2000/svg"
   xmlns:sodipodi="http://sodipodi.sourceforge.net/DTD/sodipodi-0.dtd"
   xmlns:inkscape="http://www.inkscape.org/namespaces/inkscape"
   version="1.1"
   id="Layer_1"
   x="0px"
   y="0px"
   viewBox="0 0 600.03577 600.00061"
   xml:space="preserve"
   sodipodi:docname="ic_free_designing.svg"
   width="600.03577"
   height="600.00061"
   inkscape:version="1.0.1 (0767f8302a, 2020-10-17)"><metadata
   id="metadata31"><rdf:RDF><cc:Work
       rdf:about=""><dc:format>image/svg+xml</dc:format><dc:type
         rdf:resource="http://purl.org/dc/dcmitype/StillImage" /></cc:Work></rdf:RDF></metadata><defs
   id="defs29" /><sodipodi:namedview
   pagecolor="#ffffff"
   bordercolor="#666666"
   borderopacity="1"
   objecttolerance="10"
   gridtolerance="10"
   guidetolerance="10"
   inkscape:pageopacity="0"
   inkscape:pageshadow="2"
   inkscape:window-width="1366"
   inkscape:window-height="704"
   id="namedview27"
   showgrid="false"
   inkscape:zoom="0.70710678"
   inkscape:cx="177.81275"
   inkscape:cy="376.47331"
   inkscape:window-x="0"
   inkscape:window-y="27"
   inkscape:window-maximized="1"
   inkscape:current-layer="g24" />
<style
   type="text/css"
   id="style2">
	.st0{fill:#3F373F;}
	.st1{font-family:'MyriadPro-Regular';}
	.st2{font-size:91.5163px;}
</style>
<g
   id="g24"
   transform="translate(-213.03002,-71.440008)">
	
	<g
   id="g22"
   transform="matrix(1.0830922,0,0,1.0830922,-17.701108,-5.936099)">
		<path
   class="st0"
   d="m 421.83,625.41 c -6.04,-3.37 -7.78,-8.59 -7.67,-15.33 0.3,-18.19 0.1,-36.38 0.1,-52.72 -6.02,-5.38 -11.8,-9.09 -15.65,-14.26 -10.51,-14.1 -6.91,-34.46 7.64,-44.45 3.98,-2.73 3.88,-4.87 2.42,-8.7 -12.07,-31.61 -23.89,-63.31 -36.01,-94.9 -1.99,-5.18 -1.69,-9.53 0.96,-14.35 35.16,-64.1 70.22,-128.26 105.24,-192.44 2.56,-4.69 5.51,-8.61 11.4,-8.48 5.61,0.13 8.41,3.99 10.86,8.48 35.02,64.18 70.08,128.34 105.24,192.44 2.65,4.83 2.95,9.17 0.96,14.35 -12.04,31.43 -23.74,62.98 -35.8,94.4 -1.66,4.31 -1.55,6.54 2.63,9.55 19.37,13.93 16.91,43.51 -4.37,54.3 -3.3,1.67 -4.17,3.56 -4.14,7.02 0.17,16.59 -0.13,33.18 0.18,49.76 0.12,6.73 -1.63,11.96 -7.67,15.33 -45.44,0 -90.88,0 -136.32,0 z M 397.87,399.29 c 0.32,1.4 0.4,2.11 0.64,2.75 10.92,28.96 21.95,57.89 32.68,86.92 1.33,3.59 3.51,3.38 6.24,3.38 34.98,-0.02 69.96,-0.08 104.93,0.08 3.86,0.02 5.62,-1.12 6.98,-4.79 10.25,-27.68 20.75,-55.26 31.15,-82.88 0.61,-1.63 1.11,-3.31 1.83,-5.46 -3.19,0 -5.71,0.01 -8.22,0 -6.49,-0.02 -12.99,0.21 -19.47,-0.14 -6.05,-0.33 -10.31,-4.89 -10.47,-10.42 -0.16,-5.68 4.25,-10.39 10.49,-10.97 2.5,-0.23 5.04,-0.1 7.57,-0.1 5.63,-0.01 11.26,0 17.69,0 -26.39,-48.29 -52.23,-95.58 -78.06,-142.87 -0.35,0.09 -0.7,0.19 -1.05,0.28 0,1.73 0,3.46 0,5.19 0,37.14 0.07,74.28 -0.09,111.42 -0.02,4.2 0.89,6.53 4.94,8.69 15.03,8 20.82,26.13 13.8,41.38 -7.18,15.63 -24.42,22.82 -40.75,17.01 -15.54,-5.53 -24.45,-22.78 -19.91,-38.99 2.97,-10.61 10.06,-17.67 19.96,-21.8 0,-41.13 0,-82.04 0,-124.36 -26.54,48.59 -52.4,95.92 -78.69,144.04 8.26,0 15.58,-0.06 22.91,0.02 7.83,0.08 12.89,4.44 12.83,10.87 -0.05,6.43 -5.1,10.66 -12.98,10.73 -8.09,0.07 -16.19,0.02 -24.95,0.02 z m 38.42,158.19 c 0,15.62 0,30.82 0,45.86 36.13,0 71.87,0 107.51,0 0,-15.5 0,-30.56 0,-45.86 -35.91,0 -71.52,0 -107.51,0 z m 53.7,-43.51 c -20.55,0 -41.1,-0.01 -61.65,0.01 -8.75,0.01 -14.01,4.11 -13.99,10.81 0.02,6.75 5.22,10.77 14,10.82 0.36,0 0.72,0 1.08,0 40.38,0 80.76,0.01 121.14,-0.03 2.5,0 5.11,-0.04 7.47,-0.73 4.86,-1.43 7.53,-5.09 7.51,-10.06 -0.02,-4.93 -2.58,-8.64 -7.51,-10.04 -2.21,-0.62 -4.61,-0.74 -6.93,-0.75 -20.38,-0.05 -40.75,-0.03 -61.12,-0.03 z m 0.15,-136.23 c -5.64,-0.09 -10.78,4.92 -10.88,10.59 -0.09,5.64 4.92,10.78 10.59,10.88 5.64,0.09 10.78,-4.92 10.88,-10.59 0.09,-5.64 -4.92,-10.79 -10.59,-10.88 z"
   id="path10" />
		<path
   class="st0"
   d="m 213.03,98.53 c 2.98,-9.28 7.29,-17.55 16.25,-22.58 16.58,-9.31 36.33,-3.46 45.16,13.66 1.2,2.34 2.25,3.57 5.11,3.57 58.6,-0.09 117.2,-0.07 175.8,-0.09 0.51,0 1.03,-0.18 2.19,-0.39 0,-2.75 -0.05,-5.58 0.01,-8.39 0.16,-8.53 4.18,-12.72 12.61,-12.79 13.16,-0.11 26.33,-0.1 39.49,-0.01 8.53,0.06 12.61,4.17 12.8,12.6 0.06,2.84 0.01,5.68 0.01,9.01 2.28,0 4.03,0 5.79,0 56.8,0 113.59,-0.03 170.39,0.07 3.62,0.01 5.6,-0.83 7.39,-4.34 6.94,-13.56 22.04,-20.03 36.53,-16.23 14.31,3.75 24.38,16.7 24.37,31.33 -0.01,14.65 -10.09,27.57 -24.41,31.3 -14.51,3.78 -29.44,-2.78 -36.61,-16.23 -1.29,-2.42 -2.04,-4.41 -5.7,-4.39 -33.72,0.2 -67.43,0.12 -101.15,0.13 -0.5,0 -0.99,0.16 -2.62,0.43 3.69,1.76 6.5,3.13 9.33,4.44 17.4,8.07 33.62,18.04 48.57,30.08 6.53,5.26 7.97,11.25 3.93,16.76 -3.74,5.11 -10.77,5.4 -17.16,0.29 -30.61,-24.51 -65.67,-39.16 -103.77,-47.12 -4.74,-0.99 -9.56,-1.64 -14.88,-2.55 0,2.24 0.03,4.19 0,6.14 -0.14,9.12 -4.12,13.08 -13.37,13.13 -12.8,0.06 -25.6,0.07 -38.41,0 -9.12,-0.05 -13.01,-4.08 -13.13,-13.36 -0.02,-1.78 0,-3.56 0,-5.75 -18.48,2.35 -35.97,6.89 -53.03,13.1 -23.87,8.69 -46.04,20.47 -65.78,36.6 -4.09,3.34 -8.81,5.21 -13.36,2.26 -2.65,-1.72 -4.76,-5.35 -5.58,-8.52 -1.21,-4.69 2.09,-7.97 5.62,-10.81 15.38,-12.37 32.07,-22.61 50.02,-30.81 2.4,-1.1 4.77,-2.26 7.07,-4.33 -1.68,0 -3.37,0 -5.05,0 -31.91,0 -63.83,0.07 -95.74,-0.09 -3.83,-0.02 -5.88,0.87 -7.85,4.5 -6.53,12.01 -17.06,18.09 -30.74,16.93 -14.02,-1.19 -23.65,-8.81 -28.34,-22.3 -0.52,-1.51 -1.16,-2.97 -1.74,-4.46 -0.02,-3.58 -0.02,-7.19 -0.02,-10.79 z m 287.53,-5.11 c -7.15,0 -14.04,0 -21.03,0 0,7.2 0,14.1 0,20.93 7.25,0 14.15,0 21.03,0 0,-7.16 0,-13.93 0,-20.93 z M 245.61,93.2 c -5.63,-0.08 -10.77,4.94 -10.85,10.61 -0.08,5.63 4.94,10.77 10.61,10.85 5.63,0.08 10.77,-4.95 10.85,-10.61 0.08,-5.63 -4.95,-10.77 -10.61,-10.85 z m 499.62,10.56 c -0.11,-5.68 -5.27,-10.67 -10.91,-10.56 -5.68,0.11 -10.67,5.27 -10.56,10.91 0.11,5.68 5.27,10.67 10.91,10.56 5.69,-0.12 10.67,-5.27 10.56,-10.91 z"
   id="path12" />
		<path
   class="st0"
   d="m 213.03,317.07 c 5.22,-10.17 15.02,-6.94 22.73,-7.65 3.65,-14.74 6.26,-29.33 10.99,-43.2 5.02,-14.75 11.81,-28.94 18.29,-43.16 3.16,-6.93 9.33,-9.07 15.06,-6.31 5.81,2.8 7.66,9.28 4,16.3 -8.79,16.81 -16.08,34.19 -20.56,52.66 -1.86,7.68 -3.31,15.46 -5.07,23.8 2.99,0 5.49,-0.11 7.97,0.02 6.93,0.37 11.31,4.34 11.42,11.17 0.23,14.24 0.24,28.48 -0.01,42.72 -0.12,6.56 -4.46,10.79 -11.09,10.89 -14.24,0.22 -28.48,0.08 -42.72,0.05 -5.34,-0.01 -8.32,-3.57 -10.99,-7.53 -0.02,-16.58 -0.02,-33.17 -0.02,-49.76 z m 21.89,35.4 c 7.4,0 14.17,0 21.04,0 0,-7.2 0,-14.09 0,-20.94 -7.25,0 -14.14,0 -21.04,0 0,7.16 0,13.93 0,20.94 z"
   id="path14" />
		<path
   class="st0"
   d="m 743.44,309.51 c 4.01,0 7.96,-0.14 11.89,0.03 7.2,0.31 11.46,4.38 11.56,11.59 0.19,13.87 0.19,27.75 0,41.62 -0.1,7.2 -4.35,11.49 -11.53,11.59 -13.87,0.19 -27.75,0.19 -41.62,0.01 -7.21,-0.09 -11.52,-4.34 -11.62,-11.5 -0.2,-13.87 -0.19,-27.75 -0.01,-41.62 0.1,-7.43 4.44,-11.43 12.01,-11.71 2.31,-0.08 4.62,-0.01 7.11,-0.01 -3.49,-23.29 -9.86,-45.11 -20.06,-65.77 -1.91,-3.87 -3.94,-7.69 -5.7,-11.63 -2.92,-6.54 -1.09,-12.66 4.4,-15.33 5.56,-2.7 11.51,-0.59 14.89,5.75 3.55,6.66 6.94,13.43 9.97,20.35 8.55,19.54 14.52,39.86 17.55,61.01 0.24,1.75 0.71,3.48 1.16,5.62 z m 1.58,43.01 c 0,-7.4 0,-14.17 0,-21.04 -7.2,0 -14.09,0 -20.94,0 0,7.25 0,14.14 0,21.04 7.16,0 13.93,0 20.94,0 z"
   id="path16" />
		<path
   class="st0"
   d="m 310.31,190.47 c 0.01,5.65 -5.06,10.74 -10.71,10.75 -5.65,0.01 -10.74,-5.06 -10.75,-10.71 -0.01,-5.65 5.06,-10.74 10.71,-10.75 5.65,-0.02 10.74,5.05 10.75,10.71 z"
   id="path18" />
		<path
   class="st0"
   d="m 680.58,201.22 c -5.66,0.11 -10.8,-4.85 -10.91,-10.55 -0.11,-5.66 4.85,-10.79 10.55,-10.91 5.66,-0.11 10.8,4.86 10.91,10.55 0.12,5.66 -4.85,10.8 -10.55,10.91 z"
   id="path20" />
	</g>
</g>
</svg>
