<?xml version="1.0" encoding="UTF-8" standalone="no"?>
<svg
   xmlns:dc="http://purl.org/dc/elements/1.1/"
   xmlns:cc="http://creativecommons.org/ns#"
   xmlns:rdf="http://www.w3.org/1999/02/22-rdf-syntax-ns#"
   xmlns:svg="http://www.w3.org/2000/svg"
   xmlns="http://www.w3.org/2000/svg"
   xmlns:sodipodi="http://sodipodi.sourceforge.net/DTD/sodipodi-0.dtd"
   xmlns:inkscape="http://www.inkscape.org/namespaces/inkscape"
   version="1.1"
   id="Layer_1"
   x="0px"
   y="0px"
   viewBox="0 0 1028.4401 600.00208"
   xml:space="preserve"
   sodipodi:docname="ic_free_shipping.svg"
   width="1028.4401"
   height="600.00208"
   inkscape:version="1.0.1 (0767f8302a, 2020-10-17)"><metadata
   id="metadata27"><rdf:RDF><cc:Work
       rdf:about=""><dc:format>image/svg+xml</dc:format><dc:type
         rdf:resource="http://purl.org/dc/dcmitype/StillImage" /></cc:Work></rdf:RDF></metadata><defs
   id="defs25" /><sodipodi:namedview
   pagecolor="#ffffff"
   bordercolor="#666666"
   borderopacity="1"
   objecttolerance="10"
   gridtolerance="10"
   guidetolerance="10"
   inkscape:pageopacity="0"
   inkscape:pageshadow="2"
   inkscape:window-width="1366"
   inkscape:window-height="704"
   id="namedview23"
   showgrid="false"
   inkscape:zoom="0.35355339"
   inkscape:cx="399.09509"
   inkscape:cy="419.9543"
   inkscape:window-x="0"
   inkscape:window-y="27"
   inkscape:window-maximized="1"
   inkscape:current-layer="g20" />
<style
   type="text/css"
   id="style2">
	.st0{fill:#3F373F;}
	.st1{font-family:'MyriadPro-Regular';}
	.st2{font-size:91.5163px;}
</style>
<g
   id="g20"
   transform="translate(-171.00988,-156.5696)">
	
	<g
   id="g18"
   transform="matrix(1.5629072,0,0,1.5629072,-96.262679,-88.134144)">
		<path
   class="st0"
   d="m 829,365.72 c -2.98,14.84 -6.07,29.65 -8.9,44.51 -3.97,20.8 -7.71,41.64 -11.61,62.45 -1.69,9.01 -6.19,12.71 -15.54,12.85 -6.61,0.09 -13.22,0.02 -19.6,0.02 -14.14,37.39 -36.13,55.03 -67.97,54.92 -31.61,-0.1 -54.07,-18.24 -67.42,-54.92 -1.84,0 -3.93,0 -6.03,0 -51.39,0 -102.78,0.08 -154.18,-0.12 -4.99,-0.02 -6.87,1.54 -8.29,6.26 -8.84,29.39 -35.48,48.93 -65.84,48.78 -30.11,-0.16 -56.91,-20.32 -65.26,-49.61 -1.3,-4.58 -3.36,-5.48 -7.58,-5.39 -11.56,0.24 -23.13,0.17 -34.69,0.05 -9.26,-0.09 -15.42,-5.66 -15.39,-13.61 0.02,-8.01 6.21,-13.58 15.44,-13.64 13.46,-0.09 26.92,-0.02 40.48,-0.02 1.09,-3.45 1.94,-6.53 3.03,-9.53 9.93,-27.37 36.87,-46.06 65.3,-45.34 30.02,0.75 55.78,19.8 64.3,48.28 1.62,5.41 3.87,6.78 9.17,6.71 21.41,-0.29 42.82,-0.12 65.2,-0.12 20.77,-91.05 41.55,-182.12 62.52,-274.05 -3.75,0 -6.49,0 -9.22,0 -98.73,0 -197.47,0.01 -296.2,-0.03 -3.19,0 -6.47,-0.04 -9.56,-0.72 -6.17,-1.35 -10.37,-6.87 -10.42,-12.99 -0.05,-6.12 4.12,-11.65 10.26,-13.13 2.46,-0.6 5.08,-0.73 7.63,-0.73 106.87,-0.03 213.74,-0.04 320.62,-0.02 14.45,0 19.88,6.83 16.69,20.88 -4.58,20.19 -9.22,40.36 -14.02,61.36 3.2,0 5.72,-0.02 8.24,0 29.12,0.26 58.31,-0.76 87.33,1.06 55.21,3.45 102.8,49.33 110.24,104.28 0.28,2.07 0.87,4.1 1.31,6.15 -0.04,5.13 -0.04,10.27 -0.04,15.41 z m -190.7,92.35 c 8.41,-34.27 36.19,-53.97 66.57,-54.69 31.5,-0.74 54.65,17.77 68.29,54.48 3.31,0 6.64,0 10.26,0 4.97,-26.55 9.8,-52.81 14.84,-79.02 2.3,-11.98 4.62,-23.74 1.89,-36.14 -9.63,-43.73 -47.23,-75.19 -92.08,-76.13 -18.83,-0.39 -37.67,-0.11 -56.51,-0.13 -11.74,-0.01 -23.48,0 -35.73,0 -14.55,64.02 -29,127.64 -43.54,191.62 22.45,0.01 44.04,0.01 66.01,0.01 z m 67.19,-27.08 c -22.81,0.06 -41.1,18.48 -40.96,41.26 0.13,22.32 18.56,40.74 40.92,40.88 22.52,0.15 41.28,-18.56 41.3,-41.16 0,-22.74 -18.42,-41.05 -41.26,-40.98 z M 444.84,471.8 c -0.01,-22.82 -17.85,-40.75 -40.62,-40.83 -22.76,-0.09 -40.98,17.91 -41.01,40.49 -0.03,23.18 17.89,41.54 40.67,41.67 22.78,0.14 40.97,-18.22 40.96,-41.33 z"
   id="path10" />
		<path
   class="st0"
   d="m 267.18,403.3 c -26.96,0 -53.92,0.08 -80.87,-0.04 -11.36,-0.05 -18.15,-9.17 -14.14,-18.65 2.66,-6.31 7.75,-8.66 14.36,-8.64 21.4,0.06 42.79,0.02 64.19,0.02 32.09,0 64.19,-0.02 96.28,0.02 8.54,0.01 14.09,3.89 15.49,10.59 1.97,9.4 -4.39,16.62 -15.07,16.66 -26.75,0.11 -53.5,0.04 -80.24,0.04 z"
   id="path12" />
		<path
   class="st0"
   d="m 280.74,321.06 c -21.63,0 -43.26,0.03 -64.89,-0.03 -2.76,-0.01 -5.65,-0.02 -8.26,-0.78 -5.5,-1.59 -9.41,-7.67 -9.12,-13.38 0.32,-6.37 5.09,-11.79 11.47,-12.9 1.46,-0.25 2.99,-0.21 4.49,-0.21 44.12,-0.01 88.24,0.03 132.36,-0.05 6.27,-0.01 11.42,1.69 14.5,7.49 4.86,9.18 -1.49,19.56 -12.43,19.75 -16.27,0.29 -32.55,0.09 -48.83,0.1 -6.44,0.01 -12.86,0.01 -19.29,0.01 z"
   id="path14" />
		<path
   class="st0"
   d="m 294.06,238.81 c -17.33,0 -34.67,0.05 -52,-0.02 -10.18,-0.04 -15.93,-4.96 -16.01,-13.44 -0.08,-8.62 6,-13.83 16.35,-13.83 35.09,-0.03 70.19,-0.08 105.28,0.03 11.97,0.04 18.95,11.01 13.29,20.56 -3.05,5.15 -7.87,6.77 -13.63,6.74 -17.76,-0.1 -35.52,-0.04 -53.28,-0.04 z"
   id="path16" />
	</g>
</g>
</svg>
